<svg id="Calque_1" data-name="Calque 1" xmlns="http://www.w3.org/2000/svg" viewBox="0 0 368.43 108.44"><defs><style>.cls-1{fill:#fbbf0d;}.cls-2{fill:#ea6409;}.cls-3{fill:#f49d54;}.cls-4{fill:#64c6f1;}.cls-5{fill:#7e97ce;}.cls-6{fill:#73b0a5;}.cls-7{fill:#60b467;}.cls-8{fill:#c6cd2c;}.cls-9{fill:#b0cc4e;}.cls-10{fill:#fdeb7d;}.cls-11{fill:#ef7757;}.cls-12{fill:#5a71b4;}.cls-13{fill:#448d60;}.cls-14{fill:#96ab5b;}.cls-15{fill:#f7d05c;}.cls-16{fill:#405678;}</style></defs><path class="cls-1" d="M138.3,96.39c6.16-7,8.24-17.75,8.49-23.49l-15.42,0a.22.22,0,0,1,0,.08h1.35c.05,7,2.11,15.43,5.58,23.39" transform="translate(-80.35 -72.89)"/><path class="cls-2" d="M191.23,88.66l-.08,0,.49,1.4c-9.34,3.33-16.19,7.55-21.37,12.58a29.92,29.92,0,0,0,12.28,2.58c4.16,0,8.33.18,13.56-1.86Z" transform="translate(-80.35 -72.89)"/><path class="cls-3" d="M167.83,87.76C161,83.67,157.64,75,157.38,73c-.52,0-8.18,0-8.18,0,0,5.71,5.42,19.61,16.23,27,.66.46,1.41.91,2.18,1.34A54.78,54.78,0,0,1,184.24,90c-6.16.48-13.28-.42-16.41-2.28" transform="translate(-80.35 -72.89)"/><path class="cls-3" d="M196.13,103.4l-4.91-14.75c-22.49,8-31.11,21-36.46,39.41a73.73,73.73,0,0,1,16.68,2.87c3.21-14.48,7.54-21.41,24.69-27.53" transform="translate(-80.35 -72.89)"/><path class="cls-4" d="M177.47,136.09c1,7.55,4.77,16.89,14.39,27.61l10.21-9.21a66.5,66.5,0,0,0-24.6-18.4" transform="translate(-80.35 -72.89)"/><path class="cls-5" d="M190.94,121.71a11.67,11.67,0,0,1,8.18-7.88l-2.4-8.15a27.18,27.18,0,0,0-18.48,18.51,29.69,29.69,0,0,0-1,8.78,66.88,66.88,0,0,1,20.63,13.11c-5.28-8.87-8.29-19.41-6.92-24.37" transform="translate(-80.35 -72.89)"/><path class="cls-5" d="M191.81,163.71l11.39-10.23c-16.06-18.81-36.18-24.74-55.6-24.26a134.81,134.81,0,0,1,3.83,16.41c11-.9,27,2.47,40.38,18.08" transform="translate(-80.35 -72.89)"/><path class="cls-6" d="M149.72,153.86c-12.24,5.83-13.1,17.76-14,24.89l13,2.31c1.69-7.9,2-17.31.93-27.2" transform="translate(-80.35 -72.89)"/><path class="cls-7" d="M152.84,172.41c1.55-3.17,3.79-5.91,6.91-7.24a20.38,20.38,0,0,1,23.72,6l5.84-5.17c-8.1-10.08-22.21-17.81-35.57-13.71-.46.15-.89.3-1.32.46a105.35,105.35,0,0,1,.42,19.65" transform="translate(-80.35 -72.89)"/><path class="cls-7" d="M144.06,122.75a40.5,40.5,0,0,1-15.85,3.85c7.1,12.46,10.65,28.77,7.56,52.15l14.43,2.58c3.79-17.63.47-40.34-6.14-58.58" transform="translate(-80.35 -72.89)"/><path class="cls-8" d="M87.52,99.6,81,112c14.14,7.43,26.56,11.32,37.87,11.87-5.39-8.18-14.48-16.7-31.34-24.3" transform="translate(-80.35 -72.89)"/><path class="cls-9" d="M116,142.12c4.8,12.74-4.34,26.59-7.18,31.9l7.35,1.5c5.13-9.59,14.29-24.47,8.06-41a55.67,55.67,0,0,0-3.62-7.76,76.63,76.63,0,0,1-24.9-5.06c9.19,5.86,17.44,12.85,20.29,20.41" transform="translate(-80.35 -72.89)"/><path class="cls-9" d="M139.34,104.73C127,113,110,111.3,87.52,99.49l-7.17,13.66c15.42,8.1,29.11,12.12,41.35,12.12,10.19,0,19.64-1,27.52-7.71a60.16,60.16,0,0,1-9.88-12.83" transform="translate(-80.35 -72.89)"/><path class="cls-10" d="M121.94,93.21c-9.29,4.7-24-.6-29.13-3.57l-4.07,7.6c6,3.46,16.62,6.65,27.87,6.65a45.09,45.09,0,0,0,13.18-1.84,17.9,17.9,0,0,0,6.3-3.51,67.13,67.13,0,0,1-5.55-18c-1.48,5.82-4.75,10.72-8.6,12.67" transform="translate(-80.35 -72.89)"/><path class="cls-10" d="M146.77,72.93l-15.4,0c.11,16,10.46,39.42,24.31,47.83a58,58,0,0,1,7.42-14.16c-9.73-8.82-16.26-22.77-16.33-33.64" transform="translate(-80.35 -72.89)"/><path class="cls-11" d="M191.2,88.77l-.08,0,.49,1.4c-9.34,3.33-16.19,7.54-21.37,12.57a30,30,0,0,0,12.28,2.58c4.16,0,8.33.19,13.56-1.85Z" transform="translate(-80.35 -72.89)"/><path class="cls-12" d="M177.52,136c1,7.55,4.77,16.89,14.39,27.61l10.21-9.22A66.58,66.58,0,0,0,177.52,136" transform="translate(-80.35 -72.89)"/><path class="cls-13" d="M149.87,153.88c-12.24,5.83-13.1,17.75-14,24.88l13,2.31c1.69-7.9,2-17.31.93-27.19" transform="translate(-80.35 -72.89)"/><path class="cls-14" d="M87.53,99.65,81,112.09c14.14,7.42,26.57,11.32,37.88,11.87-5.39-8.19-14.48-16.71-31.34-24.31" transform="translate(-80.35 -72.89)"/><path class="cls-15" d="M138.19,96.38c6.16-6.95,8.24-17.75,8.49-23.49l-15.42,0V73h1.35c0,7,2.11,15.43,5.58,23.39" transform="translate(-80.35 -72.89)"/><path class="cls-11" d="M251.81,136.72l7.5,5.76a24,24,0,0,1-19.77,9.58A24.79,24.79,0,1,1,259.31,112l-7.5,5.83a14.66,14.66,0,0,0-12.27-6.43c-8.84,0-15.14,6.9-15.14,15.87s6.3,15.88,15.14,15.88A14.66,14.66,0,0,0,251.81,136.72Z" transform="translate(-80.35 -72.89)"/><path class="cls-11" d="M280.08,152.06c-12,0-18.76-8.37-18.76-18.22s6.3-18.22,17.35-18.22c9.38,0,15.55,6.29,15.55,15.14a22.24,22.24,0,0,1-.54,4.82H270c.8,6.3,4.69,8.85,10,8.85a10.82,10.82,0,0,0,8.71-4l6.1,4.82C291.67,149.45,286.45,152.06,280.08,152.06Zm-9.78-22.64h15.54a7,7,0,0,0-7.37-6.84C274.12,122.58,271.24,125,270.3,129.42Z" transform="translate(-80.35 -72.89)"/><path class="cls-11" d="M300.51,117H309v3.35a12.16,12.16,0,0,1,8.92-4,9.28,9.28,0,0,1,2.94.47v8.37a14.54,14.54,0,0,0-3.75-.47,9.24,9.24,0,0,0-8.11,4.42v21.64h-8.51Z" transform="translate(-80.35 -72.89)"/><path class="cls-11" d="M340.65,152.06c-12,0-18.76-8.37-18.76-18.22s6.3-18.22,17.35-18.22c9.38,0,15.55,6.29,15.55,15.14a22.24,22.24,0,0,1-.54,4.82H330.6c.8,6.3,4.69,8.85,10,8.85a10.84,10.84,0,0,0,8.71-4l6.1,4.82C352.24,149.45,347,152.06,340.65,152.06Zm-9.78-22.64h15.54a7,7,0,0,0-7.37-6.84C334.68,122.58,331.8,125,330.87,129.42Z" transform="translate(-80.35 -72.89)"/><path class="cls-11" d="M361.08,117h8.51v2.54a12.76,12.76,0,0,1,9.31-3.88,11.6,11.6,0,0,1,10.26,5.49,13.55,13.55,0,0,1,11.32-5.49c7,0,12.46,4.82,12.46,14.33v20.77h-8.57V130.29c0-4.09-2.22-6.63-6-6.63s-5.69,2.54-7,4.82a9.93,9.93,0,0,1,.07,1.47v20.77h-8.58V130.29c0-4.09-2.21-6.63-6-6.63s-5.9,2.88-7.17,5v22h-8.51Z" transform="translate(-80.35 -72.89)"/><path class="cls-11" d="M418.77,141.61c0-5.09,4-8.91,11.19-10.11l10.32-1.75v-.87c0-3.55-2.68-5.83-6.57-5.83a9.17,9.17,0,0,0-7.64,4l-6.23-4.75c3-4.16,8-6.7,14.14-6.7,9.78,0,14.81,5.83,14.81,13.26v21.84h-8.51v-3.28c-2.15,2.61-6.17,4.29-10.12,4.29C423.39,151.73,418.77,147.84,418.77,141.61ZM431.9,145a9.46,9.46,0,0,0,8.38-4.49v-4.75l-8,1.34c-3.56.6-5,2.07-5,4.15C427.21,143.49,429,145,431.9,145Z" transform="translate(-80.35 -72.89)"/><path class="cls-16" d="M227.85,169.25l1,.77a4.9,4.9,0,1,1-3.91-7.87,4.82,4.82,0,0,1,3.91,1.9l-1,.77a3.48,3.48,0,0,0-2.91-1.5,3.72,3.72,0,0,0,0,7.44A3.49,3.49,0,0,0,227.85,169.25Z" transform="translate(-80.35 -72.89)"/><path class="cls-16" d="M231.09,162.42h1.25v8.1h3.76v1.14h-5Z" transform="translate(-80.35 -72.89)"/><path class="cls-16" d="M238.22,162.42h1.25v9.24h-1.25Z" transform="translate(-80.35 -72.89)"/><path class="cls-16" d="M242.59,162.42h1.6l2.86,4.66,2.85-4.66h1.6v9.24h-1.25v-7.58l-2.72,4.41h-1l-2.72-4.41v7.58h-1.26Z" transform="translate(-80.35 -72.89)"/><path class="cls-16" d="M257.21,162.42h1.67l3.73,9.24h-1.34l-1.08-2.72H255.9l-1.08,2.72h-1.34Zm2.57,5.45L258,163.5l-1.73,4.37Z" transform="translate(-80.35 -72.89)"/><path class="cls-16" d="M262.66,162.42h7.44v1.13H267v8.11h-1.25v-8.11h-3.09Z" transform="translate(-80.35 -72.89)"/><path class="cls-16" d="M272.22,162.42h5v1.05h-3.76v3h3.23v1h-3.23v3.13h3.76v1.06h-5Z" transform="translate(-80.35 -72.89)"/><path class="cls-16" d="M290.24,171.66l-1-1a4,4,0,0,1-3,1.22c-1.88,0-3.24-1.11-3.24-2.87a2.72,2.72,0,0,1,1.83-2.54,2.92,2.92,0,0,1-.92-2.09,2.29,2.29,0,0,1,2.49-2.26,2.25,2.25,0,0,1,2.44,2.23,2.58,2.58,0,0,1-2.1,2.42l2.33,2.28a8.14,8.14,0,0,0,.93-2.37h1.19a10.32,10.32,0,0,1-1.31,3.17l1.83,1.78Zm-3.93-.78a2.9,2.9,0,0,0,2.12-.94l-2.83-2.66-.06-.07A1.94,1.94,0,0,0,284.2,169,1.91,1.91,0,0,0,286.31,170.88Zm-.28-4.75c1.17-.32,1.72-.85,1.72-1.71a1.24,1.24,0,0,0-1.31-1.24,1.26,1.26,0,0,0-1.36,1.3C285.08,165.26,285.5,165.62,286,166.13Z" transform="translate(-80.35 -72.89)"/><path class="cls-16" d="M297.49,162.42H300c1.88,0,3,1,3,2.6a2.37,2.37,0,0,1-1.57,2.33l3,4.31H303l-2.7-4.07a1.51,1.51,0,0,1-.3,0h-1.22v4h-1.26Zm1.26,1.05v3.08H300a1.55,1.55,0,1,0,0-3.08Z" transform="translate(-80.35 -72.89)"/><path class="cls-16" d="M306.2,162.42h5v1.05h-3.76v3h3.23v1h-3.23v3.13h3.76v1.06h-5Z" transform="translate(-80.35 -72.89)"/><path class="cls-16" d="M320.65,169.57v-2.08H318v-1.07h4V170a4.93,4.93,0,0,1-4,1.9,4.86,4.86,0,0,1-5-4.88,4.92,4.92,0,0,1,8.81-3l-1,.77a3.48,3.48,0,0,0-2.91-1.5,3.6,3.6,0,0,0-3.61,3.72,3.78,3.78,0,0,0,6.53,2.53Z" transform="translate(-80.35 -72.89)"/><path class="cls-16" d="M324.57,162.42h1.26v9.24h-1.26Z" transform="translate(-80.35 -72.89)"/><path class="cls-16" d="M338,167a4.91,4.91,0,1,1-4.9-4.89A4.8,4.8,0,0,1,338,167Zm-1.3,0a3.61,3.61,0,1,0-3.6,3.72A3.59,3.59,0,0,0,336.65,167Z" transform="translate(-80.35 -72.89)"/><path class="cls-16" d="M340.26,162.42h1.64l5.28,7.72v-7.72h1.26v9.24H346.8l-5.28-7.72v7.72h-1.26Z" transform="translate(-80.35 -72.89)"/><path class="cls-16" d="M351.78,169.54A2.86,2.86,0,0,0,354,170.8a1.46,1.46,0,0,0,1.64-1.47c0-2.08-4.43-1.63-4.43-4.68a2.59,2.59,0,0,1,2.77-2.5,3.57,3.57,0,0,1,3,1.51l-.94.82a2.45,2.45,0,0,0-2-1.22,1.37,1.37,0,0,0-1.51,1.36c0,2.07,4.41,1.6,4.41,4.67a2.65,2.65,0,0,1-2.89,2.62,3.89,3.89,0,0,1-3.2-1.52Z" transform="translate(-80.35 -72.89)"/><path class="cls-16" d="M358.3,173.77l1.13-3.5h1.3l-1.38,3.5Z" transform="translate(-80.35 -72.89)"/><path class="cls-16" d="M365.7,162.42h7.44v1.13h-3.09v8.11h-1.26v-8.11H365.7Z" transform="translate(-80.35 -72.89)"/><path class="cls-16" d="M375.26,162.42h1.25v4h5.67v-4h1.25v9.24h-1.25v-4.15h-5.67v4.15h-1.25Z" transform="translate(-80.35 -72.89)"/><path class="cls-16" d="M386.55,162.42h5v1.05H387.8v3H391v1H387.8v3.13h3.76v1.06h-5Z" transform="translate(-80.35 -72.89)"/><path class="cls-16" d="M398,162.42h5v1.05h-3.76v3h3.23v1h-3.23v4.19H398Z" transform="translate(-80.35 -72.89)"/><path class="cls-16" d="M410.88,162.42h1.26v5.75a3.62,3.62,0,1,1-7.24,0v-5.75h1.25v5.83a2.37,2.37,0,1,0,4.73,0Z" transform="translate(-80.35 -72.89)"/><path class="cls-16" d="M414,162.42h7.44v1.13h-3.09v8.11h-1.26v-8.11H414Z" transform="translate(-80.35 -72.89)"/><path class="cls-16" d="M429.36,162.42h1.25v5.75a3.62,3.62,0,1,1-7.24,0v-5.75h1.26v5.83a2.37,2.37,0,1,0,4.73,0Z" transform="translate(-80.35 -72.89)"/><path class="cls-16" d="M433.47,162.42H436c1.88,0,3,1,3,2.6a2.38,2.38,0,0,1-1.58,2.33l3,4.31H439l-2.71-4.07a1.42,1.42,0,0,1-.29,0h-1.23v4h-1.25Zm1.25,1.05v3.08H436a1.55,1.55,0,1,0,0-3.08Z" transform="translate(-80.35 -72.89)"/><path class="cls-16" d="M442.17,162.42h5v1.05h-3.76v3h3.22v1h-3.22v3.13h3.76v1.06h-5Z" transform="translate(-80.35 -72.89)"/></svg>